<svg width="32" height="32" viewBox="0 0 32 32" fill="none" xmlns="http://www.w3.org/2000/svg">
<path d="M18.125 8.6625C17.5583 5.42812 15.0333 3 12 3C9.59167 3 7.5 4.5375 6.45833 6.7875C3.95 7.0875 2 9.47813 2 12.375C2 15.4781 4.24167 18 7 18H17.8333C20.1333 18 22 15.9 22 13.3125C22 10.8375 20.2917 8.83125 18.125 8.6625Z" fill="#DADADA"/>
<path d="M26.3188 12.6625C25.7804 9.42812 23.3817 7 20.5 7C18.2121 7 16.225 8.5375 15.2354 10.7875C12.8525 11.0875 11 13.4781 11 16.375C11 19.4781 13.1296 22 15.75 22H26.0417C28.2267 22 30 19.9 30 17.3125C30 14.8375 28.3771 12.8312 26.3188 12.6625Z" fill="#E2EDF8"/>
</svg>
