<svg width="32" height="32" viewBox="0 0 32 32" fill="none" xmlns="http://www.w3.org/2000/svg">
<ellipse cx="12.2222" cy="21.4437" rx="1.1187" ry="1.08039" fill="#E2EDF8"/>
<ellipse cx="16.4175" cy="24.8196" rx="1.1187" ry="1.08039" fill="#E2EDF8"/>
<ellipse cx="11.105" cy="27.4529" rx="1.1187" ry="1.08039" fill="#E2EDF8"/>
<ellipse cx="21.1714" cy="22.5242" rx="1.1187" ry="1.08039" fill="#E2EDF8"/>
<ellipse cx="20.0542" cy="19.0804" rx="1.1187" ry="1.08039" fill="#E2EDF8"/>
<path d="M23.35 9.04C22.67 5.59 19.64 3 16 3C13.11 3 10.6 4.64 9.35 7.04C6.34 7.36 4 9.91 4 13C4 16.31 6.69 19 10 19H23C25.76 19 28 16.76 28 14C28 11.36 25.95 9.22 23.35 9.04Z" fill="#E2EDF8"/>
</svg>
