<svg width="32" height="32" viewBox="0 0 32 32" fill="none" xmlns="http://www.w3.org/2000/svg">
<path d="M24.4855 10.1258C23.7305 6.05558 20.3661 3 16.3243 3C13.1154 3 10.3284 4.93481 8.94044 7.76623C5.59825 8.14375 3 11.1521 3 14.7976C3 18.7026 5.98687 21.8762 9.66217 21.8762H24.0969C27.1615 21.8762 29.6487 19.2335 29.6487 15.9774C29.6487 12.8628 27.3725 10.3381 24.4855 10.1258Z" fill="#DADADA"/>
<path d="M10 28.8882L12.9201 24.145" stroke="#55B1FF" stroke-linecap="round"/>
<path d="M18 28.8882L20.9201 24.145" stroke="#55B1FF" stroke-linecap="round"/>
<path d="M6 27.8887L8.39414 23.9998" stroke="#55B1FF" stroke-linecap="round"/>
<path d="M14 29.2798L17.2504 24.0001" stroke="#55B1FF" stroke-linecap="round"/>
<path d="M23 27.8887L25.3941 23.9998" stroke="#55B1FF" stroke-linecap="round"/>
</svg>
