<svg width="29" height="28" viewBox="0 0 29 28" fill="none" xmlns="http://www.w3.org/2000/svg">
<path d="M11.1599 24.9269H4.45312C3.90084 24.9269 3.45312 24.4792 3.45312 23.9269V11.4111C3.45312 11.0782 3.61886 10.767 3.89519 10.5812L13.9257 3.83774C14.6107 3.3772 15.5083 3.38481 16.1854 3.85689L25.8284 10.58C26.0966 10.767 26.2565 11.0733 26.2565 11.4003V23.9269C26.2565 24.4792 25.8088 24.9269 25.2565 24.9269H18.5497C17.9975 24.9269 17.5497 24.4792 17.5497 23.9269V16.9515C17.5497 16.3992 17.102 15.9515 16.5497 15.9515H13.1599C12.6076 15.9515 12.1599 16.3992 12.1599 16.9515V23.9269C12.1599 24.4792 11.7121 24.9269 11.1599 24.9269Z" fill="black"/>
</svg>
