<svg width="29" height="28" viewBox="0 0 29 28" fill="none" xmlns="http://www.w3.org/2000/svg">
<path d="M13.0922 25.5046H15.1605C15.7469 25.5046 16.1658 25.166 16.3015 24.5763L16.8626 22.1812C17.2671 22.0391 17.6607 21.8916 18.0209 21.7203L20.1186 23.0205C20.6052 23.329 21.1511 23.2823 21.554 22.8794L23.0035 21.4299C23.4107 21.0227 23.4672 20.4616 23.1392 19.9566L21.8488 17.8773C22.0201 17.5129 22.1773 17.1235 22.2999 16.7493L24.7188 16.1785C25.2988 16.0525 25.6277 15.6335 25.6277 15.0375V13.0027C25.6277 12.4261 25.2988 12.0071 24.7188 11.8811L22.3194 11.3006C22.1773 10.8777 22.0103 10.4981 21.8682 10.1628L23.1587 8.05434C23.4769 7.55369 23.4399 7.01749 23.0229 6.6005L21.554 5.15102C21.1414 4.76761 20.6441 4.70143 20.1478 4.99043L18.0209 6.31009C17.6705 6.13877 17.2768 5.99133 16.8626 5.84923L16.3015 3.42495C16.1658 2.83525 15.7469 2.49658 15.1605 2.49658H13.0922C12.5058 2.49658 12.0869 2.83525 11.9609 3.42495L11.3901 5.82975C10.9866 5.97185 10.5822 6.1193 10.2275 6.30035L8.11024 4.99043C7.60421 4.70143 7.10694 4.75787 6.69434 5.15102L5.22539 6.6005C4.8084 7.01749 4.77144 7.55369 5.08965 8.05434L6.38009 10.1628C6.23799 10.4981 6.07107 10.8777 5.93868 11.3006L3.54361 11.8811C2.95393 12.0071 2.625 12.4261 2.625 13.0027V15.0375C2.625 15.6335 2.95393 16.0525 3.54361 16.1785L5.95816 16.7493C6.07107 17.1235 6.22825 17.5129 6.39957 17.8773L5.1091 19.9566C4.78117 20.4616 4.83761 21.0227 5.24487 21.4299L6.69434 22.8794C7.0972 23.2823 7.64317 23.329 8.13946 23.0205L10.2372 21.7203C10.592 21.8916 10.9866 22.0391 11.3901 22.1812L11.9609 24.5763C12.0869 25.166 12.5058 25.5046 13.0922 25.5046ZM14.1334 17.9293C11.9666 17.9293 10.2004 16.1435 10.2004 13.9865C10.2004 11.848 11.971 10.072 14.1334 10.072C16.2904 10.072 18.0567 11.848 18.0567 13.9865C18.0567 16.1435 16.2904 17.9293 14.1334 17.9293Z" fill="#D2D2D2"/>
</svg>
