<svg width="155" height="142" viewBox="0 0 155 142" fill="none" xmlns="http://www.w3.org/2000/svg">
<g filter="url(#filter0_d_139_397)">
<path d="M14.0016 64.5863C14.1755 78.8501 24.7864 81.1115 26.004 81.4594H107.586C108.919 81.4594 116.631 74.9189 112.107 62.1821C107.586 49.4528 94.1903 46.8435 90.5387 46.8435C91.2925 40.4655 88.9732 26.7351 73.6657 22.8387C58.3582 18.9422 51.5163 29.5647 50.0087 35.363C47.2835 34.0874 40.3024 32.3015 34.1794 35.363C28.0564 38.4245 27.1056 46.0318 27.3956 49.4528C22.873 49.7427 13.8624 53.1753 14.0016 64.5863Z" fill="#E6F2FD"/>
</g>
<g filter="url(#filter1_d_139_397)">
<path d="M49.486 76.0668C49.6599 90.3306 60.2708 92.5919 61.4884 92.9398H143.07C144.404 92.9398 152.115 86.3993 147.591 73.6626C143.07 60.9333 129.675 58.324 126.023 58.324C126.777 51.9459 124.458 38.2156 109.15 34.3192C93.8426 30.4227 87.0006 41.0452 85.4931 46.8435C82.7679 45.5679 75.7867 43.782 69.6638 46.8435C63.5408 49.905 62.59 57.5123 62.88 60.9333C58.3573 61.2232 49.3468 64.6558 49.486 76.0668Z" fill="#E1E1E1"/>
</g>
<path d="M65 100L46 120" stroke="#87E3FF" stroke-width="3" stroke-linecap="round"/>
<path d="M51 100L32 120" stroke="#87E3FF" stroke-width="3" stroke-linecap="round"/>
<path d="M80 100L60 120" stroke="#87E3FF" stroke-width="3" stroke-linecap="round"/>
<path d="M94 100L76 120" stroke="#87E3FF" stroke-width="3" stroke-linecap="round"/>
<path d="M108 100L89 120" stroke="#87E3FF" stroke-width="3" stroke-linecap="round"/>
<defs>
<filter id="filter0_d_139_397" x="0" y="16" width="119.514" height="79.4595" filterUnits="userSpaceOnUse" color-interpolation-filters="sRGB">
<feFlood flood-opacity="0" result="BackgroundImageFix"/>
<feColorMatrix in="SourceAlpha" type="matrix" values="0 0 0 0 0 0 0 0 0 0 0 0 0 0 0 0 0 0 127 0" result="hardAlpha"/>
<feOffset dx="-4" dy="4"/>
<feGaussianBlur stdDeviation="5"/>
<feComposite in2="hardAlpha" operator="out"/>
<feColorMatrix type="matrix" values="0 0 0 0 0 0 0 0 0 0 0 0 0 0 0 0 0 0 0.1 0"/>
<feBlend mode="normal" in2="BackgroundImageFix" result="effect1_dropShadow_139_397"/>
<feBlend mode="normal" in="SourceGraphic" in2="effect1_dropShadow_139_397" result="shape"/>
</filter>
<filter id="filter1_d_139_397" x="35.4844" y="27.4805" width="119.514" height="79.4595" filterUnits="userSpaceOnUse" color-interpolation-filters="sRGB">
<feFlood flood-opacity="0" result="BackgroundImageFix"/>
<feColorMatrix in="SourceAlpha" type="matrix" values="0 0 0 0 0 0 0 0 0 0 0 0 0 0 0 0 0 0 127 0" result="hardAlpha"/>
<feOffset dx="-4" dy="4"/>
<feGaussianBlur stdDeviation="5"/>
<feComposite in2="hardAlpha" operator="out"/>
<feColorMatrix type="matrix" values="0 0 0 0 0 0 0 0 0 0 0 0 0 0 0 0 0 0 0.1 0"/>
<feBlend mode="normal" in2="BackgroundImageFix" result="effect1_dropShadow_139_397"/>
<feBlend mode="normal" in="SourceGraphic" in2="effect1_dropShadow_139_397" result="shape"/>
</filter>
</defs>
</svg>
